<svg width="626" height="344" viewBox="0 0 626 344" fill="none" xmlns="http://www.w3.org/2000/svg">
<path d="M0 96C0 50.7452 0 28.1177 14.0589 14.0589C28.1177 0 50.7452 0 96 0H530C575.255 0 597.882 0 611.941 14.0589C626 28.1177 626 50.7452 626 96V248C626 293.255 626 315.882 611.941 329.941C597.882 344 575.255 344 530 344H96C50.7452 344 28.1177 344 14.0589 329.941C0 315.882 0 293.255 0 248V96Z" fill="#5E28BA"/>
<path fill-rule="evenodd" clip-rule="evenodd" d="M530 4H96C73.2595 4 56.6065 4.00849 43.8639 5.72169C31.2364 7.41942 23.0497 10.7249 16.8873 16.8873C10.7249 23.0497 7.41942 31.2364 5.72169 43.8639C4.00849 56.6065 4 73.2595 4 96V248C4 270.74 4.00849 287.393 5.72169 300.136C7.41942 312.764 10.7249 320.95 16.8873 327.113C23.0497 333.275 31.2364 336.581 43.8639 338.278C56.6065 339.992 73.2595 340 96 340H530C552.74 340 569.393 339.992 582.136 338.278C594.764 336.581 602.95 333.275 609.113 327.113C615.275 320.95 618.581 312.764 620.278 300.136C621.992 287.393 622 270.74 622 248V96C622 73.2595 621.992 56.6065 620.278 43.8639C618.581 31.2364 615.275 23.0497 609.113 16.8873C602.95 10.7249 594.764 7.41942 582.136 5.72169C569.393 4.00849 552.74 4 530 4ZM14.0589 14.0589C0 28.1177 0 50.7452 0 96V248C0 293.255 0 315.882 14.0589 329.941C28.1177 344 50.7452 344 96 344H530C575.255 344 597.882 344 611.941 329.941C626 315.882 626 293.255 626 248V96C626 50.7452 626 28.1177 611.941 14.0589C597.882 0 575.255 0 530 0H96C50.7452 0 28.1177 0 14.0589 14.0589Z" fill="#FFE9D2"/>
</svg>
